<mxfile host="app.diagrams.net" agent="Mozilla/5.0 (Windows NT 10.0; Win64; x64; rv:133.0) Gecko/20100101 Firefox/133.0" version="25.0.1">
  <diagram name="PÃ¡gina-1" id="JfWwb4IS73kNTkEYc6bg">
    <mxGraphModel dx="1357" dy="780" grid="1" gridSize="10" guides="1" tooltips="1" connect="1" arrows="1" fold="1" page="1" pageScale="1" pageWidth="827" pageHeight="1169" math="0" shadow="0">
      <root>
        <mxCell id="0" />
        <mxCell id="1" parent="0" />
        <mxCell id="Zk83BCRySD_cJSg9vONC-3" value="" style="edgeStyle=orthogonalEdgeStyle;rounded=0;orthogonalLoop=1;jettySize=auto;html=1;" edge="1" parent="1" source="Zk83BCRySD_cJSg9vONC-1" target="Zk83BCRySD_cJSg9vONC-2">
          <mxGeometry relative="1" as="geometry" />
        </mxCell>
        <mxCell id="Zk83BCRySD_cJSg9vONC-1" value="botiga" style="rounded=0;whiteSpace=wrap;html=1;fillColor=#dae8fc;strokeColor=#6c8ebf;" vertex="1" parent="1">
          <mxGeometry x="354" y="40" width="120" height="60" as="geometry" />
        </mxCell>
        <mxCell id="Zk83BCRySD_cJSg9vONC-5" value="" style="edgeStyle=orthogonalEdgeStyle;rounded=0;orthogonalLoop=1;jettySize=auto;html=1;" edge="1" parent="1" source="Zk83BCRySD_cJSg9vONC-2" target="Zk83BCRySD_cJSg9vONC-4">
          <mxGeometry relative="1" as="geometry" />
        </mxCell>
        <mxCell id="Zk83BCRySD_cJSg9vONC-2" value="productes" style="rounded=0;whiteSpace=wrap;html=1;fillColor=#dae8fc;strokeColor=#6c8ebf;" vertex="1" parent="1">
          <mxGeometry x="354" y="160" width="120" height="60" as="geometry" />
        </mxCell>
        <mxCell id="Zk83BCRySD_cJSg9vONC-7" value="" style="edgeStyle=orthogonalEdgeStyle;rounded=0;orthogonalLoop=1;jettySize=auto;html=1;" edge="1" parent="1" source="Zk83BCRySD_cJSg9vONC-4" target="Zk83BCRySD_cJSg9vONC-6">
          <mxGeometry relative="1" as="geometry" />
        </mxCell>
        <mxCell id="Zk83BCRySD_cJSg9vONC-13" value="" style="edgeStyle=orthogonalEdgeStyle;rounded=0;orthogonalLoop=1;jettySize=auto;html=1;" edge="1" parent="1" source="Zk83BCRySD_cJSg9vONC-4" target="Zk83BCRySD_cJSg9vONC-12">
          <mxGeometry relative="1" as="geometry" />
        </mxCell>
        <mxCell id="Zk83BCRySD_cJSg9vONC-14" style="edgeStyle=orthogonalEdgeStyle;rounded=0;orthogonalLoop=1;jettySize=auto;html=1;exitX=0;exitY=0.5;exitDx=0;exitDy=0;entryX=0.5;entryY=0;entryDx=0;entryDy=0;" edge="1" parent="1" source="Zk83BCRySD_cJSg9vONC-4" target="Zk83BCRySD_cJSg9vONC-8">
          <mxGeometry relative="1" as="geometry" />
        </mxCell>
        <mxCell id="Zk83BCRySD_cJSg9vONC-15" style="edgeStyle=orthogonalEdgeStyle;rounded=0;orthogonalLoop=1;jettySize=auto;html=1;exitX=0;exitY=0.5;exitDx=0;exitDy=0;entryX=0.5;entryY=0;entryDx=0;entryDy=0;" edge="1" parent="1" source="Zk83BCRySD_cJSg9vONC-4" target="Zk83BCRySD_cJSg9vONC-10">
          <mxGeometry relative="1" as="geometry" />
        </mxCell>
        <mxCell id="Zk83BCRySD_cJSg9vONC-16" style="edgeStyle=orthogonalEdgeStyle;rounded=0;orthogonalLoop=1;jettySize=auto;html=1;exitX=1;exitY=0.5;exitDx=0;exitDy=0;entryX=0.5;entryY=0;entryDx=0;entryDy=0;" edge="1" parent="1" source="Zk83BCRySD_cJSg9vONC-4" target="Zk83BCRySD_cJSg9vONC-9">
          <mxGeometry relative="1" as="geometry" />
        </mxCell>
        <mxCell id="Zk83BCRySD_cJSg9vONC-17" style="edgeStyle=orthogonalEdgeStyle;rounded=0;orthogonalLoop=1;jettySize=auto;html=1;exitX=1;exitY=0.5;exitDx=0;exitDy=0;entryX=0.5;entryY=0;entryDx=0;entryDy=0;" edge="1" parent="1" source="Zk83BCRySD_cJSg9vONC-4" target="Zk83BCRySD_cJSg9vONC-11">
          <mxGeometry relative="1" as="geometry">
            <Array as="points">
              <mxPoint x="690" y="300" />
              <mxPoint x="690" y="360" />
              <mxPoint x="720" y="360" />
            </Array>
          </mxGeometry>
        </mxCell>
        <mxCell id="Zk83BCRySD_cJSg9vONC-19" style="edgeStyle=orthogonalEdgeStyle;rounded=0;orthogonalLoop=1;jettySize=auto;html=1;exitX=1;exitY=0;exitDx=0;exitDy=0;entryX=0;entryY=0.5;entryDx=0;entryDy=0;" edge="1" parent="1" source="Zk83BCRySD_cJSg9vONC-4" target="Zk83BCRySD_cJSg9vONC-18">
          <mxGeometry relative="1" as="geometry" />
        </mxCell>
        <mxCell id="Zk83BCRySD_cJSg9vONC-4" value="producte" style="rounded=0;whiteSpace=wrap;html=1;fillColor=#dae8fc;strokeColor=#6c8ebf;" vertex="1" parent="1">
          <mxGeometry x="354" y="270" width="120" height="60" as="geometry" />
        </mxCell>
        <mxCell id="Zk83BCRySD_cJSg9vONC-28" value="" style="edgeStyle=orthogonalEdgeStyle;rounded=0;orthogonalLoop=1;jettySize=auto;html=1;" edge="1" parent="1" source="Zk83BCRySD_cJSg9vONC-6" target="Zk83BCRySD_cJSg9vONC-27">
          <mxGeometry relative="1" as="geometry" />
        </mxCell>
        <mxCell id="Zk83BCRySD_cJSg9vONC-6" value="nom" style="rounded=0;whiteSpace=wrap;html=1;fillColor=#dae8fc;strokeColor=#6c8ebf;" vertex="1" parent="1">
          <mxGeometry x="354" y="380" width="120" height="60" as="geometry" />
        </mxCell>
        <mxCell id="Zk83BCRySD_cJSg9vONC-30" value="" style="edgeStyle=orthogonalEdgeStyle;rounded=0;orthogonalLoop=1;jettySize=auto;html=1;" edge="1" parent="1" source="Zk83BCRySD_cJSg9vONC-8" target="Zk83BCRySD_cJSg9vONC-29">
          <mxGeometry relative="1" as="geometry" />
        </mxCell>
        <mxCell id="Zk83BCRySD_cJSg9vONC-8" value="descripcio" style="rounded=0;whiteSpace=wrap;html=1;fillColor=#dae8fc;strokeColor=#6c8ebf;" vertex="1" parent="1">
          <mxGeometry x="200" y="380" width="120" height="60" as="geometry" />
        </mxCell>
        <mxCell id="Zk83BCRySD_cJSg9vONC-22" value="" style="edgeStyle=orthogonalEdgeStyle;rounded=0;orthogonalLoop=1;jettySize=auto;html=1;" edge="1" parent="1" source="Zk83BCRySD_cJSg9vONC-9" target="Zk83BCRySD_cJSg9vONC-20">
          <mxGeometry relative="1" as="geometry" />
        </mxCell>
        <mxCell id="Zk83BCRySD_cJSg9vONC-33" style="edgeStyle=orthogonalEdgeStyle;rounded=0;orthogonalLoop=1;jettySize=auto;html=1;exitX=0.75;exitY=1;exitDx=0;exitDy=0;entryX=0.5;entryY=0;entryDx=0;entryDy=0;" edge="1" parent="1" source="Zk83BCRySD_cJSg9vONC-9" target="Zk83BCRySD_cJSg9vONC-32">
          <mxGeometry relative="1" as="geometry">
            <Array as="points">
              <mxPoint x="600" y="570" />
            </Array>
          </mxGeometry>
        </mxCell>
        <mxCell id="Zk83BCRySD_cJSg9vONC-9" value="preu" style="rounded=0;whiteSpace=wrap;html=1;fillColor=#dae8fc;strokeColor=#6c8ebf;" vertex="1" parent="1">
          <mxGeometry x="510" y="380" width="120" height="60" as="geometry" />
        </mxCell>
        <mxCell id="Zk83BCRySD_cJSg9vONC-36" value="" style="edgeStyle=orthogonalEdgeStyle;rounded=0;orthogonalLoop=1;jettySize=auto;html=1;" edge="1" parent="1" source="Zk83BCRySD_cJSg9vONC-10" target="Zk83BCRySD_cJSg9vONC-35">
          <mxGeometry relative="1" as="geometry" />
        </mxCell>
        <mxCell id="Zk83BCRySD_cJSg9vONC-10" value="categoria" style="rounded=0;whiteSpace=wrap;html=1;fillColor=#dae8fc;strokeColor=#6c8ebf;" vertex="1" parent="1">
          <mxGeometry x="50" y="380" width="120" height="60" as="geometry" />
        </mxCell>
        <mxCell id="Zk83BCRySD_cJSg9vONC-24" style="edgeStyle=orthogonalEdgeStyle;rounded=0;orthogonalLoop=1;jettySize=auto;html=1;exitX=0.5;exitY=1;exitDx=0;exitDy=0;entryX=0.5;entryY=0;entryDx=0;entryDy=0;" edge="1" parent="1" source="Zk83BCRySD_cJSg9vONC-11" target="Zk83BCRySD_cJSg9vONC-23">
          <mxGeometry relative="1" as="geometry" />
        </mxCell>
        <mxCell id="Zk83BCRySD_cJSg9vONC-39" style="edgeStyle=orthogonalEdgeStyle;rounded=0;orthogonalLoop=1;jettySize=auto;html=1;exitX=0.25;exitY=1;exitDx=0;exitDy=0;entryX=0.25;entryY=0;entryDx=0;entryDy=0;" edge="1" parent="1" source="Zk83BCRySD_cJSg9vONC-11" target="Zk83BCRySD_cJSg9vONC-37">
          <mxGeometry relative="1" as="geometry" />
        </mxCell>
        <mxCell id="Zk83BCRySD_cJSg9vONC-11" value="disponibilitat" style="rounded=0;whiteSpace=wrap;html=1;fillColor=#dae8fc;strokeColor=#6c8ebf;" vertex="1" parent="1">
          <mxGeometry x="660" y="380" width="120" height="60" as="geometry" />
        </mxCell>
        <mxCell id="Zk83BCRySD_cJSg9vONC-12" value="imatge" style="rounded=0;whiteSpace=wrap;html=1;fillColor=#dae8fc;strokeColor=#6c8ebf;" vertex="1" parent="1">
          <mxGeometry x="707" y="270" width="120" height="60" as="geometry" />
        </mxCell>
        <mxCell id="Zk83BCRySD_cJSg9vONC-26" style="edgeStyle=orthogonalEdgeStyle;rounded=0;orthogonalLoop=1;jettySize=auto;html=1;exitX=1;exitY=0.5;exitDx=0;exitDy=0;entryX=0.5;entryY=1;entryDx=0;entryDy=0;" edge="1" parent="1" source="Zk83BCRySD_cJSg9vONC-18" target="Zk83BCRySD_cJSg9vONC-25">
          <mxGeometry relative="1" as="geometry" />
        </mxCell>
        <mxCell id="Zk83BCRySD_cJSg9vONC-18" value="&lt;div&gt;id&lt;/div&gt;" style="ellipse;whiteSpace=wrap;html=1;fillColor=#d5e8d4;strokeColor=#82b366;" vertex="1" parent="1">
          <mxGeometry x="510" y="200" width="120" height="80" as="geometry" />
        </mxCell>
        <mxCell id="Zk83BCRySD_cJSg9vONC-34" style="edgeStyle=orthogonalEdgeStyle;rounded=0;orthogonalLoop=1;jettySize=auto;html=1;exitX=0;exitY=1;exitDx=0;exitDy=0;entryX=0.25;entryY=0;entryDx=0;entryDy=0;" edge="1" parent="1" source="Zk83BCRySD_cJSg9vONC-20" target="Zk83BCRySD_cJSg9vONC-31">
          <mxGeometry relative="1" as="geometry" />
        </mxCell>
        <mxCell id="Zk83BCRySD_cJSg9vONC-20" value="moneda" style="ellipse;whiteSpace=wrap;html=1;fillColor=#d5e8d4;strokeColor=#82b366;" vertex="1" parent="1">
          <mxGeometry x="470" y="480" width="120" height="80" as="geometry" />
        </mxCell>
        <mxCell id="Zk83BCRySD_cJSg9vONC-23" value="estat" style="ellipse;whiteSpace=wrap;html=1;fillColor=#d5e8d4;strokeColor=#82b366;" vertex="1" parent="1">
          <mxGeometry x="707" y="480" width="120" height="80" as="geometry" />
        </mxCell>
        <mxCell id="Zk83BCRySD_cJSg9vONC-25" value="P001" style="rounded=0;whiteSpace=wrap;html=1;fillColor=#ffe6cc;strokeColor=#d79b00;" vertex="1" parent="1">
          <mxGeometry x="587" y="120" width="120" height="60" as="geometry" />
        </mxCell>
        <mxCell id="Zk83BCRySD_cJSg9vONC-27" value="TelÃ¨fon" style="rounded=0;whiteSpace=wrap;html=1;fillColor=#ffe6cc;strokeColor=#d79b00;" vertex="1" parent="1">
          <mxGeometry x="340" y="500" width="120" height="60" as="geometry" />
        </mxCell>
        <mxCell id="Zk83BCRySD_cJSg9vONC-29" value="Per comunicar-se amb altres persones." style="rounded=0;whiteSpace=wrap;html=1;fillColor=#ffe6cc;strokeColor=#d79b00;" vertex="1" parent="1">
          <mxGeometry x="200" y="500" width="120" height="60" as="geometry" />
        </mxCell>
        <mxCell id="Zk83BCRySD_cJSg9vONC-31" value="EUR" style="rounded=0;whiteSpace=wrap;html=1;fillColor=#ffe6cc;strokeColor=#d79b00;" vertex="1" parent="1">
          <mxGeometry x="450" y="650" width="120" height="60" as="geometry" />
        </mxCell>
        <mxCell id="Zk83BCRySD_cJSg9vONC-32" value="999.99" style="rounded=0;whiteSpace=wrap;html=1;fillColor=#ffe6cc;strokeColor=#d79b00;" vertex="1" parent="1">
          <mxGeometry x="530" y="570" width="120" height="60" as="geometry" />
        </mxCell>
        <mxCell id="Zk83BCRySD_cJSg9vONC-35" value="ElectrÃ²nica" style="rounded=0;whiteSpace=wrap;html=1;fillColor=#ffe6cc;strokeColor=#d79b00;" vertex="1" parent="1">
          <mxGeometry x="50" y="500" width="120" height="60" as="geometry" />
        </mxCell>
        <mxCell id="Zk83BCRySD_cJSg9vONC-37" value="Discponible" style="rounded=0;whiteSpace=wrap;html=1;fillColor=#ffe6cc;strokeColor=#d79b00;" vertex="1" parent="1">
          <mxGeometry x="660" y="570" width="120" height="60" as="geometry" />
        </mxCell>
        <mxCell id="Zk83BCRySD_cJSg9vONC-38" value="estoc" style="rounded=0;whiteSpace=wrap;html=1;fillColor=#ffe6cc;strokeColor=#d79b00;" vertex="1" parent="1">
          <mxGeometry x="707" y="650" width="120" height="60" as="geometry" />
        </mxCell>
        <mxCell id="Zk83BCRySD_cJSg9vONC-40" style="edgeStyle=orthogonalEdgeStyle;rounded=0;orthogonalLoop=1;jettySize=auto;html=1;exitX=1;exitY=1;exitDx=0;exitDy=0;entryX=0.853;entryY=0;entryDx=0;entryDy=0;entryPerimeter=0;" edge="1" parent="1" source="Zk83BCRySD_cJSg9vONC-23" target="Zk83BCRySD_cJSg9vONC-38">
          <mxGeometry relative="1" as="geometry" />
        </mxCell>
      </root>
    </mxGraphModel>
  </diagram>
</mxfile>
